<?xml version="1.0" standalone="no"?>
<!DOCTYPE svg PUBLIC "-//W3C//DTD SVG 20010904//EN"
 "http://www.w3.org/TR/2001/REC-SVG-20010904/DTD/svg10.dtd">
<svg version="1.0" xmlns="http://www.w3.org/2000/svg"
 width="200.000000pt" height="200.000000pt" viewBox="0 0 200.000000 200.000000"
 preserveAspectRatio="xMidYMid meet">

<g transform="translate(0.000000,200.000000) scale(0.100000,-0.100000)"
fill="#000000" stroke="none">
<path d="M716 1477 c-17 -12 -18 -27 -11 -241 7 -206 10 -231 27 -248 13 -13
28 -17 51 -14 18 3 129 13 247 21 242 18 256 20 262 37 9 24 -7 347 -17 357
-6 6 -118 29 -250 51 -132 22 -251 43 -265 46 -14 2 -34 -1 -44 -9z m318 -61
c125 -19 229 -36 231 -38 1 -2 6 -81 10 -175 l7 -173 -29 0 c-15 0 -131 -5
-256 -11 -125 -7 -230 -9 -233 -7 -6 7 -23 431 -17 441 3 4 17 6 31 3 15 -3
130 -21 256 -40z"/>
<path d="M819 1378 c-14 -27 -4 -265 13 -285 16 -19 387 -18 413 1 17 12 18
23 12 122 -4 66 -12 113 -20 121 -10 11 -334 63 -389 63 -10 0 -23 -10 -29
-22z"/>
<path d="M1070 979 c-74 -9 -146 -18 -160 -19 -38 -2 56 -30 103 -30 59 0 207
40 207 56 0 8 -3 13 -7 13 -5 -1 -69 -10 -143 -20z"/>
<path d="M656 791 c-3 -5 -14 -36 -25 -70 -14 -47 -16 -61 -6 -61 7 0 15 7 19
15 3 9 18 15 36 15 20 0 30 -5 30 -15 0 -8 7 -15 16 -15 9 0 14 6 11 13 -2 6
-12 38 -21 70 -13 44 -21 57 -36 57 -10 0 -21 -4 -24 -9z m38 -53 c5 -24 3
-28 -14 -28 -21 0 -24 10 -14 48 8 27 19 19 28 -20z"/>
<path d="M1010 730 c0 -56 3 -70 15 -70 10 0 15 10 15 30 0 27 3 30 30 30 27
0 30 -3 30 -30 0 -20 5 -30 15 -30 12 0 15 14 15 70 0 56 -3 70 -15 70 -10 0
-15 -10 -15 -30 0 -27 -3 -30 -30 -30 -27 0 -30 3 -30 30 0 20 -5 30 -15 30
-12 0 -15 -14 -15 -70z"/>
<path d="M1280 730 c0 -66 1 -70 26 -76 43 -11 74 10 74 50 0 41 -19 59 -54
50 -23 -5 -26 -3 -26 20 0 14 -4 26 -10 26 -6 0 -10 -30 -10 -70z m70 -26 c0
-31 -3 -35 -22 -32 -42 6 -33 67 10 68 7 0 12 -14 12 -36z"/>
<path d="M801 751 c-8 -5 -20 -7 -28 -4 -10 4 -13 -11 -13 -66 0 -41 4 -71 10
-71 6 0 10 11 10 25 0 22 3 25 25 19 34 -8 55 11 55 50 0 47 -26 68 -59 47z
m29 -47 c0 -31 -3 -35 -22 -32 -42 6 -33 67 10 68 7 0 12 -14 12 -36z"/>
<path d="M926 751 c-4 -6 -13 -8 -21 -4 -12 4 -15 -8 -15 -66 0 -41 4 -71 10
-71 6 0 10 11 10 25 0 22 3 24 30 19 26 -6 31 -3 40 21 14 37 0 79 -27 83 -12
2 -24 -1 -27 -7z m29 -46 c0 -23 -5 -31 -22 -33 -19 -3 -23 1 -23 26 0 33 8
44 30 40 9 -2 15 -14 15 -33z"/>
<path d="M1162 703 c3 -45 5 -48 28 -45 14 1 33 3 43 3 13 0 17 9 17 45 0 24
-4 44 -10 44 -5 0 -10 -13 -10 -29 0 -31 -22 -57 -40 -46 -5 3 -10 22 -10 41
0 19 -5 34 -11 34 -6 0 -9 -19 -7 -47z"/>
</g>
</svg>
